<?xml version="1.0" encoding="UTF-8"?>
<svg id="Lager_1" data-name="Lager 1" xmlns="http://www.w3.org/2000/svg" viewBox="0 0 443.91 419.01">
  <defs>
    <style>
      .cls-1 {
        fill: #d65d4e;
      }

      .cls-2 {
        fill: #d76857;
      }

      .cls-3 {
        fill: #dd8275;
      }
    </style>
  </defs>
  <path class="cls-2" d="M215.35,289.71c16.01-43.47,38.98-86.08,54.78-129.4,2.73-7.49,5.42-17.87,6.01-25.8,1.37-18.31-5.5-34.82-4.26-53.05C274.97,35.95,319.93-.1,364.86,6.95c1.82.29,4.46,1.6,6.75,1.37.8.88-10.61,14.83-12.04,16.59-9.25,11.41-19.13,22.38-28.57,33.65-1.56,2.41-2.66,5.88-2.54,8.76.21,5,6.57,19.11,8.88,24.4,2.22,5.09,3.55,10.47,9.18,12.73,13.94.9,30.71,13.24,42.75,1.78,12.46-11.86,24.2-29.8,36.41-42.78.99-1.05,4.8-5.58,6.04-4.61,1.94,1.52,5.37,17.42,5.62,20.54,1.41,17.9-4.93,54.01-21.2,64.68-.19.12-1.44-.08-2.51.65-1.14.77-1.44,2.64-2.6,3.12-1.24.51-3.93.33-4.08.47-.3.28.68,2.14.35,2.87-.58,1.28-3.94,2.24-4.44,2.95-.33.47-.05,1.06-.15,1.24-.56.16-1.4-.19-2.15.33-.78.54-.48,1.42-.68,1.79-8.05,2.35-14.76,7.35-22.1,10.04-7.16,2.62-16.96,3.4-24.85,6.28-2.96,1.08-3.93.96-5.36,3.48-1.4.8-9.45,3.24-9.81,3.62-.32.34.11,1.92-.42,2.74-.24.37-3.76,1.87-4.95,2.84-4.1,3.36-7.93,8.06-10.99,12.37-.5.71-.58,2.1-.84,2.31-.6.47-2.44-.13-3.09.8-.44.63-.94,6.05-2.27,8.33-.89,1.51-2.9,2.44-2.99,2.83-.5,2.26-.45,8.82-3.33,9.97-.67.27-2.09-.02-2.28.16-.36.35-.49,8-1.06,9.9-.69,2.33-3.63,4.8-3.87,5.46-.83,2.37-.71,5.61-1.97,8.47-.31.71-2.81,3.06-3.14,3.98-1.6,4.46-2.54,10.4-4.13,15.29-.63,1.94-.91,3.92-1.57,5.86-17.51,36.74-30.08,77.55-48.02,113.88-3.83,7.75-6.8,13.28-14.75,17.42-4.73,2.47-9.97,4.21-14.85,6.36-.7.03-1.42,0-2.12,0-4.06.05-6.79-.19-10.61-.71,2.63-1.92,13.22.56,14.7-1.62.3-.44-.03-1.6.21-1.82.44-.39,2.51.27,3.89-.75,3.32-2.47-.47-2.86-1.48-3.56-4.5-3.15,1.25-4.95,2.11-6.41.75-1.27.26-5.08,2.23-5.61,1.08-.29,4.19,2.35,6.62.68-1.93,3.67-1.04,5.53,2.47,7.78-.19-3.91,2.67-3.23,3.71-4.45.39-.46.29-1.64.85-2.29.69-.81,2.12-1.1,2.54-1.75.97-1.53-2.06-7.98-1.09-11.52.05-.2,3.09-2.51,3.29-2.55,1.57-.28,3.76,4.45,6.28-3.6.3-.96-.35-1.95.15-3.31,1.77-4.82,6.79-5.86-3.18-9.23-.47-.16-5.87-1.56-6.23-1.61-1.94-.27-4,1.66-5.65.05-.89-1.28.71-5.07,1.53-6.33,2.64-4.1,7.7-2.79,5.94-9.96-5.64,2.77-1.2-4.14,1.06-3.53,1.91.51-1.4,5.5,3.54,5.63,1.16.03,2.07-1.15,3-1.3,2.74-.44,4.98,3.71-.14,3.47-1.19-.05-5.91-2.13-4.62,1.03.41.99,3.89.63,5.88,1.9,1.71,1.09,3.22,3.83,3.45,3.96,3.66,2.04,3.12-1.28,3.78-2.61,1.05-2.11,2.44-3.2,3.35-5.87,1.75-5.14,1.86-10.87-2.72-14.65-1.19-.99-7.06-2.71-6.67-4.63,1.02-.57,7.59-2.53,8-2.43,1.24.3,3.74,6.62,6.84,6.3-.73-4.75.92-2.85,1.94-3.71.84-.7,3.61-8.45,3.02-9.01-3.69.63-2.42-.75-3.52-2.34-.35-.5-1.43-.45-1.47-.89-.14-1.59,1.65-2.57,1.5-4.16-.17-1.86-3.42-2.41-1.35-5.57,1.2-1.84,6.36-1.39,5.55-6.84,3.46-1.09,4.69,4.68,4.98,4.93,2.43,2.07,2.96-4.96,3.51-6.68.46-1.42,1.7-2.09,1.96-2.99.57-1.92-.07-4.52.14-6.57-1.35-.35-2.23,1.22-3.29,1.3-1.4.11-2.8-2.73-6.29-.63-3.83,2.3,0,4.27.2,6.12.75,6.67-5.87,2.69-6.88,3.81-.2.23.23,2.2.02,3.03-.17.7-1.55.8-2.05,1.62-.61,1.01-1.3,4.42-1.86,4.54-2.84.6-2.88-3.65-3.17-5.66l3.53.71c2.06-5.47-2.5-4.43-5.33-6.33-2.03-1.36-1.81-4.72-5.97-3.57-.97,4.42,2,1.88,3.61,3.82.78.94.69,2.13.63,3.25-2.01.98-4.64-1.75-5.91-1.38-1.67.49-4.73,9.67-7.52,7.03-.58-.55,1.84-3.32-.52-4.1-1.8-.6-2.74.87-2.32-2.25,5.29.83,4.35-1.17,6.37-3.89.96-1.3,3.8-2.58,2.5-4.6-1.97-3.07-6.08-1.01-6.69-1.46-.27-.19-.29-1.72-.69-2.3-1.81-2.64-11.21-1.98-13.72-2.74-1.61-.49-2.39-3.77-4.33-.52-1.17,1.97-.77,4.2-.41,6.31-2.02-1.85-3.22,1.11-3.54,3.18-.35,2.3,4.01-.21,5.34,2.48.35.71-.16,6.13-.38,6.36-.3.3-7.67-1-8.5-.42-.24.17-2.37,4.45-2.65,5.16-1.53,3.98-1.35,8.08-3.41,12.15-1.8,3.56-5.22,9.72-7.35,12.09,1.07-3.16,2.24-7.3,3.5-10.28,3.51-8.33,7.19-16.81,10.64-25.07.31-.74.45-1.51.71-2.12l.71-.71ZM368.69,11.06c1.1-2.46-5.53-2.3-6.98-2.75-.69,2.52,2.39.95,2.83,1.41.17.18-.49,3.94,1.07,4.24,1.81.35,1.23-3.03,3.08-2.9Z"/>
  <path class="cls-2" d="M126.97,281.93C90.58,193.74,52.31,106.16,17.05,17.48c-.76-1.92-3.73-8.33-3.81-9.67-.03-.61.53-1.62.96-1.62h75.65c.42,0,1.28,1.44,1.59,1.95,2.68,4.3,6.79,16.59,9,22.11,20,49.93,40.1,102.14,59,151.13,1.62,4.21,2.85,7.79,3.59,12.18.2,1.2-.2,2.37,1.41,2.83.02.23-.03.48,0,.71.19,1.56.46,2.86.94,4.37,3.69,11.62,10.11,23.69,14.03,34.78,1.08,3.07.82,7.81-.98,10.55-1.28,1.95-2.9,1.43-4.45,2.62s-3.99,4.69-5.32,5.29c-2.72,1.22-3.85-.52-5.23,3.98-.46,1.51.68,2.91-1.06,4.57-1.37,1.3-2.78.7-3.44,1.15-.61.42-.46,2.28-.96,2.59-.69.44-2.6-.29-3.86.73-1.12.9-.72,2.74-1.34,3.61-.82,1.14-6.64,4.07-7.8,4.93-1.78,1.32-5.84,5.71-7.91,6.29-2.18.61-3.61-1.54-5.47-1.34-1.54.17-2.2,2.21-3.92,2.15-.08-.2.08-.51,0-.71l-.71-.71ZM86.32,8.31H17.74c-2.24,0,.12,6.18.58,7.2,3.56,7.95,7.5,15.75,9.84,23.38,1.01,3.3,4.64,8.34,4.78,8.83,1.44,4.92,2.08,8.26,4.05,13.44.33.86,1.34.75,1.57,1.42.7,2.13,1.65,8.75,2.8,10.37.5.71,1.88.22,2.1.46.28.31.03,3.04.39,4.24.26.86,2.63,6.75,2.88,7.03.76.88,2.31.55,2.47.71.22.21-.56,1.61-.46,2.33.82,5.65,5.67,13.91,7.9,19.57.32.82.24,2.68.36,2.8.35.34,2.54-.22,2.81.02.24.22-.03,4.77.3,6.41.66,3.24,4.29,11.29,5.68,14.83.37.94,2.31,6.05,2.57,6.27.47.38,2-.04,2.76.08l-.71,3.53c1.88-.38,2.31-1.38,4.57-1.48,2.47-.12,5.88.48,5.02,3.62-1.19,4.36-5.96-.24-6.73,2.54-.12.44,1.91,7.83,2.31,8.88,1.13,2.97,3.06,5.17,4.3,7.72.65,1.33.85,4.6,1.81,5.26,3.06,2.13,1.37-3.49,4.98-2.51-.12.88.19,4.9,1.12,4.98,2.66-1.56,11.28-1.92,9.83-5.69-2.92,2.04-8.66-1.7-5.31-3.92.36-.24,6.16.65,8.54.09,4.91-1.15,7.62-6.77,9.88-7.83.94-.44,11.05-.86,11.99-1.77-2.44-5.89-1.15-3.97,3.35-5.48.67-.23,3.82-3.33,3.73.17-.02.8-1.02,1.55-1.22,2.34-.36,1.44-1.26,6.88-2.3,7.61-.77.55-2.6.12-2.82.35-.1.1-.13,2.68-.04,2.78.17.18,3.62.13,4.28-.32.78-.54.69-2.89,1.78-3.21,1.25-.37,2.35,1.38,4.1,1.39,1.95.01,8.18-4.05,8.87-.99.51,2.27-2.85,2.41,4.31,3.13.22-5.1.72-9.12-5.65-7.07-.58-2.21,2.06-1.35,3.12-2.07,1.95-1.34-1.95-3.61-2.28-4.78-.72-2.55-.48-6.86-2.2-9.65-.65-1.06-3.55-1-4.17-3.08s.37-4.28-.52-6.55c-.58-1.48-3.86-3.78-3.91-4.06-.23-1.24.88-2.61.62-3.95-.21-1.1-2.01-2.43-2.5-3.89-.62-1.87-.56-6.91-1.52-8.24-.66-.92-2.47-.07-2.87-.44-.72-.67.06-7.57-.76-8.44-1.07-1.13-2.2,2.35-2.4,2.9-.41,1.16-.26,2.9-.53,3.35-.3.49-3.86,1.1-4.12.82-.1-.1-.06-2.68.04-2.78.24-.25,2.43.3,3.19-.73.25-.34-.71-2.47.06-4.12.69-1.49,2.14-.65,2.36-.86.19-.18-1.16-4.58-1.43-5.11-.41-.81-1.7-.79-2-1.69-1.04-3.16-.57-7.39-2.78-11.38-1.19-2.14-3.58-2.58-4.19-5.7-.94-4.81-.28-6.41-2.34-11.67-4.4-11.24-9.07-24.26-13.99-35.64-1.01-2.34-3.33-4.89-3.98-6.62-1.81-4.78,1.26-8.25-5.69-9.15ZM84.55,173.76c-.31.41,2.18,7.93,4.01,8.41s5.41-4.3,4.15-6.31c-.81-1.28-6.97-3.69-8.16-2.1ZM107.88,223.95c1.02-.71,0-12.72-4.94-9.9-1.57,2.58,1.76,12.13,4.94,9.9Z"/>
  <path class="cls-3" d="M164.45,197.09c1.66-.22,2.69,3.74,3.17,4.96,9.72,24.38,18.77,50.48,28.85,73.69,3.61,8.31,4.83,21,17.47,16.8-3.44,8.25-7.13,16.74-10.64,25.07-1.26,2.99-2.44,7.12-3.5,10.28-1.87,2.08-2.46,4.62-3.54,7.07-2.41,1.14-8.91,2.05-10.55,3.23-1.21.87-4.16,5.71-6.04,7.4-1.52,1.36-4.55,2.48-5.37,3.82-.93,1.52-.56,3.37-1.44,4.92-1.15,2.04-5.8,6.71-7.32,9.65-1.69,3.24-1.61,6.05-.32,9.3.28.7,1.27,1.07,1.35,1.28.5,1.28.9,2.84,1.41,4.24,1.01,2.77,1.8,5.72,2.83,8.48-1.93.43-1.3-1.04-1.78-2.07-13.13-28.6-23.73-58.66-35.69-87.72l.69-.36-.69-.35c-1.72-4.17-3.89-9.14-5.66-13.43,1.72.06,2.37-1.98,3.92-2.15,1.86-.2,3.29,1.95,5.47,1.34s6.13-4.97,7.91-6.29c1.16-.86,6.98-3.79,7.8-4.93.62-.87.22-2.7,1.34-3.61,1.27-1.02,3.17-.29,3.86-.73.49-.31.35-2.17.96-2.59.65-.45,2.07.15,3.44-1.15,1.75-1.66.6-3.07,1.06-4.57,1.38-4.5,2.51-2.76,5.23-3.98,1.33-.59,3.77-4.11,5.32-5.29s3.18-.67,4.45-2.62c1.8-2.74,2.06-7.48.98-10.55-3.91-11.09-10.34-23.15-14.03-34.78-.48-1.5-.74-2.81-.94-4.37Z"/>
  <path class="cls-3" d="M416.15,144.06c-.71,2.3-3.18,4.47-4.92,6.06-.87.79-2,.76-2.62,1.25-2.8,2.21-.75,2.54-5.89,4.01-.2.38.12,1.24-.68,1.79-.74.51-1.6.17-2.15.33-1.98,3.65-3.11,2.25-6.18,4.04-14.66,8.51-29.91,10.34-46.14,15.76-2.03,3.58-2.26,2-5.1,3.62-23.96,13.62-37.74,57.85-48.25,83.41-.45,1.08.07,2.48-1.79,2.06,1.59-4.89,2.53-10.83,4.13-15.29.33-.92,2.83-3.28,3.14-3.98,1.26-2.86,1.14-6.1,1.97-8.47.23-.66,3.17-3.14,3.87-5.46.57-1.9.7-9.55,1.06-9.9.19-.18,1.61.11,2.28-.16,2.88-1.16,2.83-7.72,3.33-9.97.09-.38,2.1-1.31,2.99-2.83,1.34-2.27,1.84-7.7,2.27-8.33.64-.93,2.49-.33,3.09-.8.26-.21.34-1.6.84-2.31,3.06-4.31,6.88-9.01,10.99-12.37,1.19-.97,4.72-2.47,4.95-2.84.53-.82.1-2.4.42-2.74.36-.38,8.41-2.83,9.81-3.62,1.43-2.51,2.4-2.4,5.36-3.48,7.89-2.88,17.69-3.66,24.85-6.28,7.35-2.68,14.06-7.69,22.1-10.04.2-.37-.1-1.25.68-1.79s1.59-.17,2.15-.33c.1-.18-.18-.77.15-1.24.51-.71,3.87-1.67,4.44-2.95.33-.73-.65-2.59-.35-2.87.15-.14,2.84.04,4.08-.47,1.17-.48,1.47-2.35,2.6-3.12,1.07-.73,2.32-.53,2.51-.65Z"/>
  <path class="cls-2" d="M167.98,378.79c4.37.18,3.08,6.77,4.4,8.32,1.8,2.1,5.7-1.19,2.68,6.51,2,.38,5.94,1.46,7.11,3.15.95,1.37.38,3.67,1.31,4.34,3.28,2.36,2.58-1.75,3.57-2.89,3.38-3.87,9.09-.66,11.38,2.82,1.52,2.31-.56,2.47-1.25,3.46-.43.63-.14,1.75-.23,1.86-.48.53-3.68-2.52-2.82,1.41-2.99-.89-5.68-2.24-8.48-3.54-.19-.09-.51.09-.71,0-1.13-2.25-3.85-3.11-5.66-4.24-1.1-2.1-1.92-3.68-4.24-4.95-.1-.18.1-.52,0-.71-.85-1.6-2.08-3.86-3.54-4.95-.08-.2.08-.5,0-.71l-.71-.71c-.08-.21.08-.5,0-.71-1.02-2.76-1.82-5.72-2.83-8.48Z"/>
  <path class="cls-3" d="M194.14,407.78c.22.06.49-.06.71,0,.1.32.38.64.71.71.43.09.98-.09,1.41,0,.08.33.38.67.71.71.91.1,1.93-.12,2.83,0,3.82.51,6.55.76,10.61.71-6.68,1.81-14,.66-20.28-1.99l-5.17-3.67c2.8,1.29,5.5,2.65,8.48,3.54Z"/>
  <path class="cls-3" d="M228.08,403.54c-3.06,3.2-9.04,6.32-13.46,6.79-1.03.11-1.31-.43-1.38-.43,4.88-2.15,10.11-3.9,14.85-6.36Z"/>
  <path class="cls-3" d="M179.29,400.01c1.81,1.13,4.53,1.99,5.66,4.24-2.55-1.21-4.5-2.02-5.66-4.24-.69-.43-1.47-.18-2.52-1.35-1-1.11-1.09-2.44-1.72-3.59,2.32,1.27,3.14,2.85,4.24,4.95Z"/>
  <path class="cls-3" d="M163.03,193.55c2.84-.37,1.38,2.47,1.41,2.83-1.61-.45-1.21-1.63-1.41-2.83Z"/>
  <path class="cls-3" d="M175.05,394.35c-.51-.44-3.23-2.83-3.34-3.03-.43-.83-.07-1.57-.2-1.92,1.45,1.09,2.68,3.35,3.54,4.95Z"/>
  <path class="cls-3" d="M214.64,290.42c.12-.29.45-.52.71-.71l-.71.71Z"/>
  <path class="cls-3" d="M171.52,388.69c-.02-.05-.53-.24-.71-.71l.71.71Z"/>
  <path class="cls-2" d="M133.34,297.49c-.08-.2.08-.51,0-.71l.69.35-.69.36Z"/>
  <path class="cls-3" d="M127.68,282.64c-.08-.2-.59-.43-.71-.71l.71.71Z"/>
  <path class="cls-1" d="M199.8,327.89c2.14-2.37,5.55-8.53,7.35-12.09,2.06-4.07,1.88-8.17,3.41-12.15.28-.71,2.41-5,2.65-5.16.84-.58,8.21.72,8.5.42.22-.23.74-5.65.38-6.36-1.33-2.69-5.7-.19-5.34-2.48.32-2.07,1.52-5.03,3.54-3.18-.36-2.11-.76-4.34.41-6.31,1.94-3.26,2.72.03,4.33.52,2.51.76,11.91.1,13.72,2.74.4.58.42,2.11.69,2.3.61.44,4.72-1.62,6.69,1.46,1.3,2.02-1.54,3.3-2.5,4.6-2.01,2.72-1.08,4.72-6.37,3.89-.43,3.12.52,1.65,2.32,2.25,2.36.78-.06,3.56.52,4.1,2.79,2.64,5.84-6.54,7.52-7.03,1.26-.37,3.9,2.35,5.91,1.38.06-1.12.14-2.31-.63-3.25-1.61-1.94-4.57.6-3.61-3.82,4.16-1.15,3.95,2.2,5.97,3.57,2.83,1.91,7.39.86,5.33,6.33l-3.53-.71c.29,2,.33,6.26,3.17,5.66.57-.12,1.25-3.53,1.86-4.54.5-.82,1.87-.93,2.05-1.62.21-.83-.22-2.81-.02-3.03,1.01-1.12,7.63,2.86,6.88-3.81-.21-1.85-4.03-3.82-.2-6.12,3.49-2.09,4.89.74,6.29.63,1.06-.08,1.94-1.65,3.29-1.3-.21,2.05.42,4.64-.14,6.57-.26.9-1.5,1.57-1.96,2.99-.55,1.72-1.08,8.75-3.51,6.68-.29-.25-1.52-6.02-4.98-4.93.81,5.44-4.35,5-5.55,6.84-2.07,3.17,1.18,3.71,1.35,5.57.15,1.59-1.65,2.58-1.5,4.16.04.43,1.13.39,1.47.89,1.1,1.59-.16,2.97,3.52,2.34.6.56-2.17,8.31-3.02,9.01-1.02.85-2.67-1.04-1.94,3.71-3.1.32-5.61-6-6.84-6.3-.41-.1-6.97,1.85-8,2.43-.38,1.92,5.48,3.64,6.67,4.63,4.57,3.79,4.47,9.51,2.72,14.65-.91,2.67-2.3,3.76-3.35,5.87-.66,1.33-.11,4.66-3.78,2.61-.23-.13-1.74-2.87-3.45-3.96-1.99-1.27-5.48-.91-5.88-1.9-1.29-3.16,3.43-1.08,4.62-1.03,5.11.23,2.88-3.92.14-3.47-.93.15-1.84,1.33-3,1.3-4.95-.12-1.64-5.11-3.54-5.63-2.26-.61-6.69,6.31-1.06,3.53,1.76,7.17-3.3,5.86-5.94,9.96-.81,1.27-2.42,5.06-1.53,6.33,1.65,1.62,3.71-.31,5.65-.05.36.05,5.76,1.45,6.23,1.61,9.97,3.38,4.95,4.41,3.18,9.23-.5,1.36.15,2.34-.15,3.31-2.52,8.05-4.71,3.32-6.28,3.6-.21.04-3.24,2.35-3.29,2.55-.96,3.54,2.06,9.99,1.09,11.52-.42.66-1.85.95-2.54,1.75-.56.66-.46,1.84-.85,2.29-1.04,1.21-3.89.54-3.71,4.45-3.51-2.25-4.41-4.11-2.47-7.78-2.43,1.68-5.54-.97-6.62-.68-1.97.53-1.48,4.33-2.23,5.61-.86,1.46-6.61,3.26-2.11,6.41,1.01.71,4.81,1.09,1.48,3.56-1.37,1.02-3.45.36-3.89.75-.24.21.09,1.37-.21,1.82-1.48,2.18-12.07-.31-14.7,1.62-.9-.12-1.92.1-2.83,0-.1-.32-.38-.64-.71-.71-.43-.09-.99.09-1.41,0-.13-.31-.38-.61-.71-.71-.22-.06-.49.06-.71,0-.86-3.94,2.34-.89,2.82-1.41.1-.11-.2-1.23.23-1.86.69-.99,2.77-1.15,1.25-3.46-2.29-3.48-8-6.69-11.38-2.82-.99,1.13-.29,5.25-3.57,2.89-.94-.67-.37-2.97-1.31-4.34-1.17-1.69-5.11-2.77-7.11-3.15,3.02-7.7-.88-4.41-2.68-6.51-1.33-1.55-.03-8.14-4.4-8.32-.51-1.4-.91-2.96-1.41-4.24,6.65,2.36,8.96-8.25,12.01-11.68,1.44-1.62,4.04-2.32,5.62-3.57,5.09-4.03,9.23-17.9,12.07-24.34,1.08-2.46,1.67-4.99,3.54-7.07ZM231.61,297.49c-1.23-1.23-3.61,1.13-1.05,2.11,1.5.57,1.25-1.9,1.05-2.11ZM252.82,301.72c-.12-.13-1.55.08-2.11,0,.43,4.08,1.31,5.77,5.65,4.94.56-2.52-2.26-.71-3.23-2.08-.55-.77-.15-2.71-.31-2.87ZM258.14,309.51c-2.18.48-.18,3.88,1.39,3.53,2.18-.48.18-3.88-1.39-3.53Z"/>
  <path class="cls-1" d="M368.69,11.06c-1.86-.13-1.28,3.25-3.08,2.9-1.55-.3-.89-4.06-1.07-4.24-.44-.46-3.52,1.11-2.83-1.41,1.45.45,8.08.28,6.98,2.75Z"/>
  <path class="cls-1" d="M86.32,8.31c6.95.9,3.88,4.37,5.69,9.15.66,1.73,2.97,4.28,3.98,6.62,4.92,11.38,9.59,24.4,13.99,35.64,2.06,5.25,1.39,6.86,2.34,11.67.61,3.12,3.01,3.56,4.19,5.7,2.22,3.99,1.74,8.22,2.78,11.38.3.9,1.59.88,2,1.69.27.53,1.62,4.93,1.43,5.11-.23.21-1.67-.63-2.36.86-.77,1.65.19,3.78-.06,4.12-.77,1.02-2.95.48-3.19.73-.1.1-.13,2.68-.04,2.78.27.28,3.82-.33,4.12-.82.28-.45.12-2.19.53-3.35.2-.55,1.33-4.03,2.4-2.9.83.87.04,7.78.76,8.44.4.37,2.21-.48,2.87.44.95,1.33.9,6.37,1.52,8.24.49,1.46,2.28,2.79,2.5,3.89.26,1.33-.85,2.71-.62,3.95.05.28,3.33,2.58,3.91,4.06.89,2.27-.08,4.52.52,6.55s3.51,2.02,4.17,3.08c1.72,2.79,1.48,7.1,2.2,9.65.33,1.17,4.23,3.44,2.28,4.78-1.06.73-3.7-.14-3.12,2.07,6.37-2.05,5.87,1.97,5.65,7.07-7.15-.72-3.79-.85-4.31-3.13-.69-3.06-6.93,1-8.87.99-1.75-.01-2.84-1.75-4.1-1.39-1.08.32-1,2.67-1.78,3.21-.65.45-4.11.5-4.28.32-.1-.1-.06-2.68.04-2.78.23-.23,2.05.19,2.82-.35,1.04-.73,1.93-6.18,2.3-7.61.2-.79,1.2-1.54,1.22-2.34.09-3.51-3.06-.4-3.73-.17-4.5,1.51-5.79-.41-3.35,5.48-.94.91-11.05,1.33-11.99,1.77-2.25,1.06-4.97,6.68-9.88,7.83-2.39.56-8.19-.33-8.54-.09-3.35,2.23,2.39,5.96,5.31,3.92,1.45,3.77-7.18,4.12-9.83,5.69-.93-.08-1.24-4.09-1.12-4.98-3.61-.98-1.91,4.63-4.98,2.51-.95-.66-1.16-3.93-1.81-5.26-1.24-2.55-3.17-4.75-4.3-7.72-.4-1.05-2.43-8.44-2.31-8.88.77-2.79,5.53,1.82,6.73-2.54.86-3.14-2.56-3.74-5.02-3.62-2.26.11-2.69,1.11-4.57,1.48l.71-3.53c-.76-.12-2.29.3-2.76-.08-.26-.22-2.2-5.32-2.57-6.27-1.39-3.53-5.01-11.59-5.68-14.83-.34-1.64-.07-6.19-.3-6.41-.27-.25-2.46.32-2.81-.02-.12-.12-.04-1.97-.36-2.8-2.23-5.66-7.08-13.92-7.9-19.57-.1-.72.68-2.11.46-2.33-.17-.16-1.72.16-2.47-.71-.25-.29-2.62-6.18-2.88-7.03-.37-1.2-.11-3.94-.39-4.24-.22-.24-1.6.25-2.1-.46-1.15-1.62-2.1-8.24-2.8-10.37-.22-.67-1.24-.56-1.57-1.42-1.98-5.17-2.62-8.51-4.05-13.44-.14-.49-3.77-5.52-4.78-8.83-2.34-7.62-6.28-15.43-9.84-23.38-.46-1.02-2.82-7.2-.58-7.2h68.58ZM124.85,131.34c-1.45,1.32-5.98-.25-6.34,0-1.43,1.03-1.01,8.69-.72,10.59,4.65-.2,3.62-6.49,4.55-7.83.77-1.1,3.37.34,2.51-2.77ZM134.74,141.94c-2.03-.6-3.61,3.47-2.83,4.24.18.17,4.78.89,4.95.71,1.38-1.55-3.04-3.04-2.12-4.95ZM106.47,149.02h-4.23v1.41h4.23v-1.41ZM111.42,149.72h-2.11v1.41h2.11v-1.41ZM132.63,152.55c-.77-.77-2.18.64-1.41,1.41s2.18-.64,1.41-1.41ZM102.59,153.96c-1.67.37-1.04,3.2.69,2.82s1.04-3.2-.69-2.82Z"/>
  <path class="cls-1" d="M84.55,173.76c1.19-1.6,7.35.82,8.16,2.1,1.26,2.01-2.25,6.8-4.15,6.31s-4.32-7.99-4.01-8.41Z"/>
  <path class="cls-1" d="M107.88,223.95c-3.18,2.23-6.52-7.32-4.94-9.9,4.94-2.82,5.96,9.19,4.94,9.9Z"/>
  <path class="cls-2" d="M196.26,334.96c-2.83,6.44-6.98,20.31-12.07,24.34-1.58,1.25-4.18,1.96-5.62,3.57-3.05,3.43-5.36,14.04-12.01,11.68-.08-.21-1.07-.58-1.35-1.28-1.29-3.25-1.37-6.06.32-9.3,1.53-2.93,6.17-7.61,7.32-9.65.88-1.56.5-3.4,1.44-4.92.82-1.34,3.85-2.46,5.37-3.82,1.88-1.69,4.83-6.53,6.04-7.4,1.64-1.18,8.15-2.09,10.55-3.23Z"/>
  <path class="cls-2" d="M195.55,408.49c-.32-.07-.61-.38-.71-.71.33.1.58.39.71.71Z"/>
  <path class="cls-2" d="M197.68,409.2c-.32-.04-.63-.37-.71-.71.32.07.61.38.71.71Z"/>
  <path class="cls-2" d="M252.82,301.72c.15.16-.24,2.09.31,2.87.97,1.37,3.79-.44,3.23,2.08-4.34.83-5.22-.86-5.65-4.94.57.07,1.99-.14,2.11,0Z"/>
  <path class="cls-2" d="M258.14,309.51c1.57-.35,3.57,3.04,1.39,3.53-1.57.35-3.57-3.04-1.39-3.53Z"/>
  <path class="cls-2" d="M231.61,297.49c.21.21.46,2.68-1.05,2.11-2.56-.98-.18-3.34,1.05-2.11Z"/>
  <path class="cls-2" d="M124.85,131.34c.86,3.11-1.74,1.67-2.51,2.77-.93,1.34.1,7.63-4.55,7.83-.29-1.9-.7-9.57.72-10.59.36-.26,4.89,1.31,6.34,0Z"/>
  <path class="cls-2" d="M134.74,141.94c-.92,1.91,3.51,3.4,2.12,4.95-.17.19-4.77-.53-4.95-.71-.78-.77.8-4.84,2.83-4.24Z"/>
  <path class="cls-2" d="M102.59,153.96c1.73-.38,2.36,2.45.69,2.82s-2.36-2.45-.69-2.82Z"/>
  <rect class="cls-2" x="102.23" y="149.02" width="4.23" height="1.41"/>
  <rect class="cls-2" x="109.3" y="149.72" width="2.11" height="1.41"/>
  <path class="cls-2" d="M132.63,152.55c.77.77-.64,2.18-1.41,1.41s.64-2.18,1.41-1.41Z"/>
</svg>