<?xml version="1.0" encoding="UTF-8"?>
<svg id="Lager_1" data-name="Lager 1" xmlns="http://www.w3.org/2000/svg" viewBox="0 0 865.49 300.8">
  <path d="M181.58,0l8.39,1.72-29.56,33.69,9.77,23.99,28.67,4.55c8.15-9.29,16.12-18.79,24.46-27.91,1.02-1.12,2.28-2.59,3.31-3.61.44-.43.43-1.07,1.39-.83,9.98,24.54-2.43,52.56-25.66,63.95-9.22,4.52-19.05,4.17-28.35,8.69-10.82,5.26-16.79,13.47-21.98,23.94-17.34,35-30.96,72.18-49.48,106.55-11.3,13.79-33.05,11.74-42.61-2.85l-.12-.87c17.33-37.77,35.71-75.08,53.04-112.84,5.66-12.32,14.62-28.43,15.38-41.9.47-8.35-2.35-15.38-2.95-23.21-2.1-27.3,22.08-50.86,48.4-53.06h7.9Z"/>
  <polygon points="50.88 114.49 79.57 170.77 56.86 224.62 0 114.49 50.88 114.49"/>
  <path d="M454.24,227.58v64.67h-32.11l-.99-175.25h27.17l3.96,15.3c6.39-8,13.32-14.23,23.6-16.64,62.23-14.58,74.11,84.47,36.39,114.86-16.65,13.42-43.25,13.23-58.03-2.95ZM473.39,143.29c-27.58,3.73-26.79,78.08,9.04,68.77,24.2-6.29,25.91-73.49-9.04-68.77Z"/>
  <path d="M271.48,237.45h-28.9l-3.46-11.85c-1.26.02-2.46,2.56-3.46,3.46-19,17.14-58.33,15.18-68.99-10.52-4.36-10.52-3.92-24.19,1.49-34.24,12.52-23.24,45.67-23.53,68.75-22.87.59-7.41-1.9-14.57-8.56-18.35-9.07-5.14-25.19-2.96-34.9-.16-4.19,1.21-8.07,3.3-12.35,4.2l-6.86-22.43.42-.52c8.79-4.14,17.83-7.2,27.49-8.58,32.59-4.64,64.48,4.59,66.86,42.14,1.38,21.85-1.37,44.76.5,66.64.38,4.39,1.38,8.73,1.97,13.09ZM236.9,182.66c-12.13.13-36.13-2.05-40.65,12.93-7.18,23.79,27.53,27.38,37.89,10.72.75-1.2,2.76-5.47,2.76-6.62v-17.03Z"/>
  <path d="M723.94,237.45h-28.4l-3.46-11.85c-3.58,3.05-6.83,6.42-10.96,8.79-11.47,6.61-28.48,7.33-40.91,3.07-28.53-9.77-31.73-50.01-7.31-66.07,16.44-10.81,38.04-10.18,56.96-9.97.44-12.15-6.23-20.39-18.5-21.25s-24.87,1.93-36.54,6.92l-.68-.82-6.79-21.88c29.56-15.33,84.03-17.02,92.9,23.69,4.62,21.22.12,47.05,1.7,68.89l2,20.47ZM689.85,182.66c-13.23.18-38.89-2.45-41.36,15.68-3.09,22.64,30.07,23.35,38.66,7.53.79-1.46,2.71-6.24,2.71-7.66v-15.55Z"/>
  <path d="M398.42,237.45h-32.11l.02-70.86c-.31-12.76-5.44-24.3-20.04-23.44-12.32.72-20.97,13.18-20.97,24.95v69.36h-32.11l-.49-120.46h27.17l3.46,15.3c8-9.97,18.72-16.93,31.83-17.79,27-1.78,42.23,15.16,43.24,41.25v81.7Z"/>
  <path d="M850.88,237.45h-31.37c-1.25,0-.24-2.9-.22-3.68.38-14.27.11-28.76,0-42.95-.07-9.77.91-31.09-3.39-39.11-6.93-12.93-25.9-10.42-33.1,1.16-1.63,2.63-4.53,10.33-4.53,13.24v71.34h-32.11l-.99-120.46h27.66l3.46,15.3c7.89-9.66,18.52-16.84,31.34-17.79,25.1-1.86,41.05,12.6,43.23,37.3v85.65Z"/>
  <path d="M584.15,67.14v131.56c0,1.23,1.4,5.57,2.06,6.82,4.24,8.05,12.65,6.61,20.16,4.78l4.29,23.48c-8.32,4.31-19.87,5.58-29.16,4.1-15.27-2.43-29.46-15.51-29.46-31.77V67.14h32.11Z"/>
</svg>