<?xml version="1.0" encoding="UTF-8"?>
<svg id="Lager_1" data-name="Lager 1" xmlns="http://www.w3.org/2000/svg" viewBox="0 0 375.27 116.89">
  <defs>
    <style>
      .cls-1 {
        fill: #d65d4e;
      }

      .cls-2 {
        fill: #d76857;
      }

      .cls-3 {
        fill: #d86957;
      }

      .cls-4 {
        fill: #dd8275;
      }
    </style>
  </defs>
  <g>
    <path class="cls-2" d="M58.14,69.11c3.76-9.57,9.16-18.96,12.87-28.5.64-1.65,1.27-3.93,1.41-5.68.32-4.03-1.29-7.67-1-11.68.72-10.02,11.29-17.96,21.84-16.41.43.06,1.05.35,1.58.3.19.19-2.49,3.27-2.83,3.65-2.17,2.51-4.49,4.93-6.71,7.41-.37.53-.63,1.3-.6,1.93.05,1.1,1.54,4.21,2.09,5.37s.83,2.31,2.16,2.8c3.27.2,7.21,2.92,10.04.39s5.68-6.56,8.55-9.42c.23-.23,1.13-1.23,1.42-1.02.45.33,1.26,3.84,1.32,4.52.33,3.94-1.16,11.89-4.98,14.24-.04.03-.34-.02-.59.14-.27.17-.34.58-.61.69-.29.11-.92.07-.96.1-.07.06.16.47.08.63-.14.28-.93.49-1.04.65-.08.1-.01.23-.03.27-.13.04-.33-.04-.5.07-.18.12-.11.31-.16.39-1.89.52-3.47,1.62-5.19,2.21s-3.98.75-5.84,1.38c-.7.24-.92.21-1.26.77-.33.18-2.22.71-2.3.8-.08.08.03.42-.1.6-.06.08-.88.41-1.16.63-.96.74-1.86,1.77-2.58,2.73-.12.16-.14.46-.2.51-.14.1-.57-.03-.73.18-.1.14-.22,1.33-.53,1.83-.21.33-.68.54-.7.62-.12.5-.11,1.94-.78,2.2-.16.06-.49,0-.54.04-.08.08-.12,1.76-.25,2.18-.16.51-.85,1.06-.91,1.2-.2.52-.17,1.23-.46,1.86-.07.16-.66.67-.74.88-.37.98-.6,2.29-.97,3.37-.15.43-.21.86-.37,1.29-4.11,8.09-7.07,17.08-11.28,25.08-.9,1.71-1.6,2.92-3.46,3.84-1.11.54-2.34.93-3.49,1.4-.17,0-.33,0-.5,0-.95.01-1.59-.04-2.49-.16.62-.42,3.11.12,3.45-.36.07-.1,0-.35.05-.4.1-.09.59.06.91-.17.78-.54-.11-.63-.35-.78-1.06-.69.29-1.09.5-1.41.18-.28.06-1.12.52-1.23.25-.06.98.52,1.55.15-.45.81-.24,1.22.58,1.71-.04-.86.63-.71.87-.98.09-.1.07-.36.2-.51.16-.18.5-.24.6-.39.23-.34-.48-1.76-.26-2.54.01-.04.73-.55.77-.56.37-.06.88.98,1.47-.79.07-.21-.08-.43.03-.73.42-1.06,1.6-1.29-.75-2.03-.11-.03-1.38-.34-1.46-.35-.45-.06-.94.37-1.33,0-.21-.28.17-1.12.36-1.4.62-.9,1.81-.61,1.39-2.19-1.32.61-.28-.91.25-.78.45.11-.33,1.21.83,1.24.27,0,.49-.25.7-.29.64-.1,1.17.82-.03.76-.28-.01-1.39-.47-1.09.23.1.22.91.14,1.38.42.40.24.76.84.81.87.86.45.73-.28.89-.58.25-.47.57-.7.79-1.29.41-1.13.44-2.39-.64-3.23-.28-.22-1.66-.6-1.57-1.02.24-.13,1.78-.56,1.88-.53.29.07.88,1.46,1.61,1.39-.17-1.05.22-.63.46-.82.20-.15.85-1.86.71-1.98-.87.14-.57-.16-.83-.52-.08-.11-.34-.1-.35-.19-.03-.35.39-.57.35-.92-.04-.41-.8-.53-.32-1.23.28-.4,1.49-.31,1.3-1.51.81-.24,1.1,1.03,1.17,1.09.57.46.69-1.09.83-1.47.11-.31.4-.46.46-.66.13-.42-.02-1,.03-1.45-.32-.08-.52.27-.77.29-.33.02-.66-.6-1.48-.14-.9.51,0,.94.05,1.35.18,1.47-1.38.59-1.62.84-.05.05.05.48,0,.67-.04.15-.36.18-.48.36-.14.22-.3.97-.44,1-.67.13-.68-.8-.74-1.25l.83.16c.48-1.21-.59-.97-1.25-1.39-.48-.3-.43-1.04-1.4-.79-.23.97.47.41.85.84.18.21.16.47.15.72-.47.22-1.09-.39-1.39-.3-.39.11-1.11,2.13-1.77,1.55-.14-.12.43-.73-.12-.9-.42-.13-.64.19-.54-.5,1.24.18,1.02-.26,1.5-.86.23-.29.89-.57.59-1.01-.46-.68-1.43-.22-1.57-.32-.06-.04-.07-.38-.16-.51-.43-.58-2.63-.44-3.22-.6-.38-.11-.56-.83-1.02-.11-.28.43-.18.93-.1,1.39-.47-.41-.76.24-.83.7-.08.51.94-.05,1.26.55.08.16-.04,1.35-.09,1.4-.07.07-1.8-.22-2-.09-.06.04-.56.98-.62,1.14-.36.88-.32,1.78-.8,2.68-.42.78-1.23,2.14-1.73,2.66.25-.7.53-1.61.82-2.26.82-1.83,1.69-3.7,2.5-5.52.07-.16.11-.33.17-.47l.17-.16ZM94.15,7.75c.26-.54-1.3-.51-1.64-.61-.16.55.56.21.66.31.04.04-.11.87.25.93.42.08.29-.67.72-.64Z"/>
    <path class="cls-2" d="M37.38,67.4C28.83,47.98,19.84,28.69,11.56,9.16c-.18-.42-.88-1.83-.89-2.13,0-.13.12-.36.22-.36h17.77c.1,0,.3.32.37.43.63.95,1.6,3.65,2.11,4.87,4.7,11,9.42,22.49,13.86,33.28.38.93.67,1.72.84,2.68.05.26-.05.52.33.62,0,.05,0,.1,0,.16.05.34.11.63.22.96.87,2.56,2.38,5.22,3.3,7.66.25.68.19,1.72-.23,2.32-.3.43-.68.31-1.05.58s-.94,1.03-1.25,1.16c-.64.27-.9-.11-1.23.88-.11.33.16.64-.25,1.01-.32.29-.65.15-.81.25-.14.09-.11.5-.22.57-.16.1-.61-.06-.91.16-.26.2-.17.6-.32.79-.19.25-1.56.9-1.83,1.09-.42.29-1.37,1.26-1.86,1.38-.51.13-.85-.34-1.28-.3-.36.04-.52.49-.92.47-.02-.04.02-.11,0-.16l-.17-.16ZM27.83,7.14H11.72c-.53,0,.03,1.36.14,1.59.84,1.75,1.76,3.47,2.31,5.15.24.73,1.09,1.84,1.12,1.94.34,1.08.49,1.82.95,2.96.08.19.32.16.37.31.16.47.39,1.93.66,2.28.12.16.44.05.49.1.07.07,0,.67.09.93.06.19.62,1.49.68,1.55.18.19.54.12.58.16.05.05-.13.35-.11.51.19,1.24,1.33,3.06,1.86,4.31.08.18.06.59.09.62.08.07.6-.05.66,0,.06.05,0,1.05.07,1.41.16.71,1.01,2.49,1.33,3.26.09.21.54,1.33.6,1.38.11.08.47,0,.65.02l-.17.78c.44-.08.54-.3,1.07-.33.58-.03,1.38.11,1.18.8-.28.96-1.4-.05-1.58.56-.03.1.45,1.73.54,1.96.27.65.72,1.14,1.01,1.7.15.29.2,1.01.42,1.16.72.47.32-.77,1.17-.55-.03.19.05,1.08.26,1.1.62-.34,2.65-.42,2.31-1.25-.69.45-2.03-.37-1.25-.86.08-.05,1.45.14,2.01.02,1.15-.25,1.79-1.49,2.32-1.72.22-.1,2.6-.19,2.82-.39-.57-1.3-.27-.88.79-1.21.16-.05.9-.73.88.04,0,.18-.24.34-.29.52-.08.32-.3,1.52-.54,1.68-.18.12-.61.03-.66.08-.02.02-.03.59,0,.61.04.04.85.03,1-.07.18-.12.16-.64.42-.71.29-.08.55.3.96.31.46,0,1.92-.89,2.08-.22.12.5-.67.53,1.01.69.05-1.12.17-2.01-1.33-1.56-.14-.49.48-.3.73-.46.46-.3-.46-.8-.53-1.05-.17-.56-.11-1.51-.52-2.12-.15-.23-.83-.22-.98-.68s.09-.94-.12-1.44c-.14-.32-.91-.83-.92-.89-.05-.27.21-.58.15-.87-.05-.24-.47-.53-.59-.86-.15-.41-.13-1.52-.36-1.81-.16-.2-.58-.02-.67-.1-.17-.15.01-1.67-.18-1.86-.25-.25-.52.52-.56.64-.1.25-.06.64-.13.74-.07.11-.91.24-.97.18-.02-.02-.01-.59,0-.61.06-.05.57.07.75-.16.06-.07-.17-.54.01-.91.16-.33.5-.14.56-.19.05-.04-.27-1.01-.34-1.13-.1-.18-.4-.17-.47-.37-.24-.7-.13-1.63-.65-2.51-.28-.47-.84-.57-.99-1.26-.22-1.06-.07-1.41-.55-2.57-1.03-2.48-2.13-5.34-3.29-7.85-.24-.52-.78-1.08-.94-1.46-.43-1.05.29-1.82-1.34-2.02ZM27.41,43.58c-.07.09.51,1.75.94,1.85s1.27-.95.97-1.39c-.19-.28-1.64-.81-1.92-.46ZM32.89,54.63c.24-.16,0-2.8-1.16-2.18-.37.57.41,2.67,1.16,2.18Z"/>
    <path class="cls-4" d="M46.18,48.71c.39-.05.63.82.75,1.09,2.28,5.37,4.41,11.12,6.78,16.23.85,1.83,1.14,4.63,4.1,3.7-.81,1.82-1.67,3.69-2.5,5.52-.3.66-.57,1.57-.82,2.26-.44.46-.58,1.02-.83,1.56-.57.25-2.09.45-2.48.71-.28.19-.98,1.26-1.42,1.63-.36.3-1.07.55-1.26.84-.22.34-.13.74-.34,1.08-.27.45-1.36,1.48-1.72,2.12-.40.71-.38,1.33-.08,2.05.07.15.30.24.32.28.12.28.21.63.33.93.24.61.42,1.26.66,1.87-.45.09-.31-.23-.42-.46-3.08-6.3-5.58-12.92-8.38-19.32l.16-.08-.16-.08c-.4-.92-.91-2.01-1.33-2.96.4.01.56-.44.92-.47.44-.04.77.43,1.28.3s1.44-1.1,1.86-1.38c.27-.19,1.64-.83,1.83-1.09.15-.19.05-.6.32-.79.3-.23.74-.06.91-.16.12-.07.08-.48.22-.57.15-.1.49.03.81-.25.41-.37.14-.68.25-1.01.32-.99.59-.61,1.23-.88.31-.13.89-.9,1.25-1.16s.75-.15,1.05-.58c.42-.6.48-1.65.23-2.32-.92-2.44-2.43-5.1-3.3-7.66-.11-.33-.17-.62-.22-.96Z"/>
    <path class="cls-4" d="M105.3,37.04c-.17.51-.75.99-1.16,1.33-.2.17-.47.17-.62.27-.66.49-.18.56-1.38.88-.05.08.03.27-.16.4-.17.11-.38.04-.5.07-.47.8-.73.5-1.45.89-3.44,1.87-7.03,2.28-10.84,3.47-.48.79-.53.44-1.2.8-5.63,3-8.86,12.74-11.33,18.37-.1.24.02.55-.42.45.37-1.08.59-2.39.97-3.37.08-.2.66-.72.74-.88.3-.63.27-1.34.46-1.86.05-.15.75-.69.91-1.2.13-.42.17-2.1.25-2.18.04-.04.38.02.54-.04.68-.25.67-1.7.78-2.2.02-.08.49-.29.7-.62.31-.5.43-1.69.53-1.83.15-.21.59-.07.73-.18.06-.05.08-.35.2-.51.72-.95,1.62-1.98,2.58-2.73.28-.21,1.11-.54,1.16-.63.12-.18.02-.53.1-.6.08-.08,1.98-.62,2.3-.8.33-.55.56-.53,1.26-.77,1.85-.63,4.16-.81,5.84-1.38s3.3-1.69,5.19-2.21c.05-.08-.02-.27.16-.39s.37-.04.5-.07c.02-.04-.04-.17.03-.27.12-.16.91-.37,1.04-.65.08-.16-.15-.57-.08-.63.03-.03.67,0,.96-.1.27-.11.34-.52.61-.69.25-.16.55-.12.59-.14Z"/>
    <path class="cls-2" d="M47.01,88.73c1.03.04.72,1.49,1.03,1.83.42.46,1.34-.26.63,1.43.47.08,1.39.32,1.67.69.22.3.09.81.31.96.77.52.61-.39.84-.64.79-.85,2.13-.15,2.67.62.36.51-.13.54-.29.76-.1.14-.03.39-.06.41-.11.12-.86-.56-.66.31-.7-.2-1.33-.49-1.99-.78-.05-.02-.12.02-.17,0-.27-.5-.9-.68-1.33-.93-.26-.46-.45-.81-1-1.09-.02-.04.02-.12,0-.16-.2-.35-.49-.85-.83-1.09-.02-.05.02-.11,0-.16l-.17-.16s.02-.11,0-.16c-.24-.61-.43-1.26-.66-1.87Z"/>
    <path class="cls-4" d="M53.15,95.11c.05.01.12-.01.17,0,.02.07.09.14.17.16.1.02.23-.02.33,0,.02.07.09.15.17.16.21.02.45-.03.66,0,.9.11,1.54.17,2.49.16-1.57.4-3.29.14-4.76-.44l-1.21-.81c.66.29,1.29.58,1.99.78Z"/>
    <path class="cls-4" d="M61.12,94.18c-.72.71-2.12,1.39-3.16,1.5-.24.02-.31-.1-.32-.09,1.15-.47,2.38-.86,3.49-1.4Z"/>
    <path class="cls-4" d="M49.67,93.4c.42.25,1.06.44,1.33.93-.6-.27-1.06-.45-1.33-.93-.16-.1-.34-.04-.59-.3-.23-.24-.26-.54-.4-.79.55.28.74.63,1,1.09Z"/>
    <path class="cls-4" d="M45.85,47.94c.67-.08.32.54.33.62-.38-.1-.28-.36-.33-.62Z"/>
    <path class="cls-4" d="M48.67,92.16c-.12-.1-.76-.62-.78-.67-.1-.18-.02-.35-.05-.42.34.24.63.74.83,1.09Z"/>
    <path class="cls-4" d="M57.97,69.27c.03-.06.11-.12.17-.16l-.17.16Z"/>
    <path class="cls-4" d="M47.84,90.91s-.13-.05-.17-.16l.17.16Z"/>
    <path class="cls-2" d="M38.87,70.82s.02-.11,0-.16l.16.08-.16.08Z"/>
    <path class="cls-4" d="M37.54,67.55s-.14-.09-.17-.16l.17.16Z"/>
    <path class="cls-1" d="M54.48,77.52c.5-.52,1.3-1.88,1.73-2.66.48-.9.44-1.8.8-2.68.06-.16.57-1.1.62-1.14.2-.13,1.93.16,2,.09.05-.05.17-1.24.09-1.4-.31-.59-1.34-.04-1.26-.55.08-.46.36-1.11.83-.7-.09-.46-.18-.96.1-1.39.46-.72.64,0,1.02.11.59.17,2.8.02,3.22.6.09.13.1.46.16.51.14.1,1.11-.36,1.57.32.3.45-.36.73-.59,1.01-.47.6-.25,1.04-1.5.86-.1.69.12.36.54.5.55.17-.01.78.12.9.65.58,1.37-1.44,1.77-1.55.3-.08.92.52,1.39.3.01-.25.03-.51-.15-.72-.38-.43-1.07.13-.85-.84.98-.25.93.48,1.4.79.66.42,1.74.19,1.25,1.39l-.83-.16c.07.44.08,1.38.74,1.25.13-.03.29-.78.44-1,.12-.18.44-.2.48-.36.05-.18-.05-.62,0-.67.24-.25,1.79.63,1.62-.84-.05-.41-.95-.84-.05-1.35.82-.46,1.15.16,1.48.14.25-.02.46-.36.77-.29-.05.45.1,1.02-.03,1.45-.06.2-.35.34-.46.66-.13.38-.25,1.93-.83,1.47-.07-.05-.36-1.33-1.17-1.09.19,1.2-1.02,1.1-1.3,1.51-.49.7.28.82.32,1.23.03.35-.39.57-.35.92,0,.09.26.09.35.19.26.35-.04.65.83.52.14.12-.51,1.83-.71,1.98-.24.19-.63-.23-.46.82-.73.07-1.32-1.32-1.61-1.39-.1-.02-1.64.41-1.88.53-.09.42,1.29.8,1.57,1.02,1.07.83,1.05,2.09.64,3.23-.21.59-.54.83-.79,1.29-.16.29-.03,1.03-.89.58-.05-.03-.41-.63-.81-.87-.47-.28-1.29-.2-1.38-.42-.3-.7.81-.24,1.09-.23,1.2.05.68-.86.03-.76-.22.03-.43.29-.7.29-1.16-.03-.38-1.13-.83-1.24-.53-.13-1.57,1.39-.25.78.41,1.58-.78,1.29-1.39,2.19-.19.28-.57,1.11-.36,1.4.39.36.87-.07,1.33,0,.09.01,1.35.32,1.46.35,2.34.74,1.16.97.75,2.03-.12.3.04.52-.03.73-.59,1.77-1.11.73-1.47.79-.05,0-.76.52-.77.56-.23.78.48,2.2.26,2.54-.1.14-.43.21-.6.39-.13.14-.11.4-.2.51-.24.27-.91.12-.87.98-.83-.5-1.03-.91-.58-1.71-.57.37-1.3-.21-1.55-.15-.46.12-.35.95-.52,1.23-.2.32-1.55.72-.5,1.41.24.16,1.13.24.35.78-.32.22-.81.08-.91.17-.06.05.02.3-.05.4-.35.48-2.84-.07-3.45.36-.21-.03-.45.02-.66,0-.02-.07-.09-.14-.17-.16-.1-.02-.23.02-.33,0-.03-.07-.09-.13-.17-.16-.05-.01-.12.01-.17,0-.2-.87.55-.2.66-.31.02-.02-.05-.27.06-.41.16-.22.65-.25.29-.76-.54-.77-1.88-1.47-2.67-.62-.23.25-.07,1.16-.84.64-.22-.15-.09-.65-.31-.96-.28-.37-1.2-.61-1.67-.69.71-1.7-.21-.97-.63-1.43-.31-.34,0-1.79-1.03-1.83-.12-.31-.21-.65-.33-.93,1.56.52,2.1-1.82,2.82-2.57.34-.36.95-.51,1.32-.79,1.19-.89,2.17-3.94,2.83-5.36.25-.54.39-1.1.83-1.56ZM61.95,70.83c-.29-.27-.85.25-.25.46.35.13.29-.42.25-.46ZM66.94,71.76s-.36.02-.5,0c.1.9.31,1.27,1.33,1.09.13-.56-.53-.16-.76-.46-.13-.17-.04-.6-.07-.63ZM68.19,73.47c-.51.11-.04.85.33.78.51-.11.04-.85-.33-.78Z"/>
    <path class="cls-1" d="M94.15,7.75c-.44-.03-.3.72-.72.64-.36-.07-.21-.89-.25-.93-.1-.1-.83.24-.66-.31.34.1,1.9.06,1.64.61Z"/>
    <path class="cls-1" d="M27.83,7.14c1.63.2.91.96,1.34,2.02.15.38.7.94.94,1.46,1.16,2.51,2.25,5.37,3.29,7.85.48,1.16.33,1.51.55,2.57.14.69.71.79.99,1.26.52.88.41,1.81.65,2.51.07.2.37.19.47.37.06.12.38,1.08.34,1.13-.05.05-.39-.14-.56.19-.18.36.05.83-.01.91-.18.23-.69.11-.75.16-.02.02-.03.59,0,.61.06.06.9-.07.97-.18.06-.1.03-.48.13-.74.05-.12.31-.89.56-.64.19.19.01,1.71.18,1.86.09.08.52-.11.67.1.22.29.21,1.4.36,1.81.11.32.54.61.59.86.06.29-.2.6-.15.87.01.06.78.57.92.89.21.5-.02,1,.12,1.44s.83.44.98.68c.4.61.35,1.56.52,2.12.08.26.99.76.53,1.05-.25.16-.87-.03-.73.46,1.5-.45,1.38.43,1.33,1.56-1.68-.16-.89-.19-1.01-.69-.16-.67-1.63.22-2.08.22-.41,0-.67-.39-.96-.31-.25.07-.23.59-.42.71-.15.1-.96.11-1,.07-.02-.02-.01-.59,0-.61.05-.05.48.04.66-.08.24-.16.45-1.36.54-1.68.05-.17.28-.34.29-.52.02-.77-.72-.09-.88-.04-1.06.33-1.36-.09-.79,1.21-.22.2-2.6.29-2.82.39-.53.23-1.17,1.47-2.32,1.72-.56.12-1.92-.07-2.01-.02-.79.49.56,1.31,1.25.86.34.83-1.69.91-2.31,1.25-.22-.02-.29-.9-.26-1.1-.85-.22-.45,1.02-1.17.55-.22-.15-.27-.87-.42-1.16-.29-.56-.74-1.05-1.01-1.7-.09-.23-.57-1.86-.54-1.96.18-.61,1.3.4,1.58-.56.2-.69-.6-.82-1.18-.8-.53.02-.63.24-1.07.33l.17-.78c-.18-.03-.54.07-.65-.02-.06-.05-.52-1.17-.6-1.38-.33-.78-1.18-2.55-1.33-3.26-.08-.36-.02-1.36-.07-1.41-.06-.05-.58.07-.66,0-.03-.03,0-.43-.09-.62-.52-1.25-1.66-3.07-1.86-4.31-.02-.16.16-.47.11-.51-.04-.04-.4.04-.58-.16-.06-.06-.62-1.36-.68-1.55-.09-.27-.03-.87-.09-.93-.05-.05-.37.05-.49-.1-.27-.36-.49-1.81-.66-2.28-.05-.15-.29-.12-.37-.31-.46-1.14-.61-1.88-.95-2.96-.03-.11-.89-1.22-1.12-1.94-.55-1.68-1.47-3.4-2.31-5.15-.11-.23-.66-1.59-.14-1.59h16.11ZM36.88,34.24c-.34.29-1.41-.06-1.49,0-.34.23-.24,1.91-.17,2.33,1.09-.04.85-1.43,1.07-1.72.18-.24.79.07.59-.61ZM39.2,36.57c-.48-.13-.85.77-.66.93.04.04,1.12.2,1.16.16.32-.34-.71-.67-.5-1.09ZM32.56,38.13h-.99v.31h.99v-.31ZM33.72,38.28h-.5v.31h.5v-.31ZM38.7,38.91c-.18-.17-.51.14-.33.31s.51-.14.33-.31ZM31.65,39.22c-.39.08-.24.7.16.62s.24-.7-.16-.62Z"/>
    <path class="cls-1" d="M27.41,43.58c.28-.35,1.73.18,1.92.46.3.44-.53,1.5-.97,1.39s-1.01-1.76-.94-1.85Z"/>
    <path class="cls-1" d="M32.89,54.63c-.75.49-1.53-1.61-1.16-2.18,1.16-.62,1.4,2.02,1.16,2.18Z"/>
    <path class="cls-2" d="M53.65,79.08c-.67,1.42-1.64,4.47-2.83,5.36-.37.28-.98.43-1.32.79-.72.75-1.26,3.09-2.82,2.57-.02-.05-.25-.13-.32-.28-.3-.72-.32-1.33.08-2.05.36-.65,1.45-1.68,1.72-2.12.21-.34.12-.75.34-1.08.19-.29.91-.54,1.26-.84.44-.37,1.14-1.44,1.42-1.63.39-.26,1.91-.46,2.48-.71Z"/>
    <path class="cls-2" d="M53.48,95.27c-.08-.02-.14-.08-.17-.16.08.02.14.09.17.16Z"/>
    <path class="cls-2" d="M53.98,95.43c-.08,0-.15-.08-.17-.16.08.01.14.08.17.16Z"/>
    <path class="cls-2" d="M66.94,71.76s-.06.46.07.63c.23.3.89-.1.76.46-1.02.18-1.23-.19-1.33-1.09.13.02.47-.03.5,0Z"/>
    <path class="cls-2" d="M68.19,73.47c.37-.08.84.67.33.78-.37.08-.84-.67-.33-.78Z"/>
    <path class="cls-2" d="M61.95,70.83s.11.59-.25.46c-.6-.22-.04-.74.25-.46Z"/>
    <path class="cls-2" d="M36.88,34.24c.2.69-.41.37-.59.61-.22.3.02,1.68-1.07,1.72-.07-.42-.17-2.11.17-2.33.08-.06,1.15.29,1.49,0Z"/>
    <path class="cls-2" d="M39.2,36.57c-.22.42.82.75.5,1.09-.04.04-1.12-.12-1.16-.16-.18-.17.19-1.07.66-.93Z"/>
    <path class="cls-2" d="M31.65,39.22c.41-.08.55.54.16.62s-.55-.54-.16-.62Z"/>
    <rect class="cls-2" x="31.56" y="38.13" width=".99" height=".31"/>
    <rect class="cls-2" x="33.22" y="38.28" width=".5" height=".31"/>
    <path class="cls-2" d="M38.7,38.91c.18.17-.15.48-.33.31s.15-.48.33-.31Z"/>
  </g>
  <g>
    <path class="cls-3" d="M123.65,95.12v-5.83c-3.72,4.4-10.65,7.35-16.48,7.35-13.19,0-22.74-11.07-22.74-25.28s9.89-24.77,23.5-24.77c6.59,0,13.1,3.89,15.55,7.52h.17v-5.92h10.31v46.92h-10.31ZM123.31,71.53c0-8.2-5.66-14.62-13.78-14.62s-13.86,6.59-13.86,14.96c0,7.86,6,14.46,13.95,14.46s13.69-6.76,13.69-14.79Z"/>
    <path class="cls-3" d="M172.94,95.12v-23.58c0-9.55-3.13-14.62-9.47-14.62-3.47,0-9.72,2.28-9.72,12.6v25.61h-11.24v-46.92h10.4v4.06c3.72-3.64,7.52-5.66,12.93-5.66,6.09,0,18.34,3.8,18.34,20.8v27.73h-11.24Z"/>
    <path class="cls-3" d="M192.64,110.76v-62.55h10.31v5.49h.17c3.97-4.99,9.04-7.1,15.22-7.1,13.78,0,23.5,11.58,23.5,24.85s-10.23,25.19-23.5,25.19c-6,0-9.97-1.61-14.46-6v20.12h-11.24ZM230.59,71.62c0-7.61-5.66-14.71-13.61-14.71s-13.78,6.59-13.78,14.71c0,9.89,7.78,14.71,13.69,14.71,7.69,0,13.69-6.93,13.69-14.71Z"/>
    <path class="cls-3" d="M249.03,95.12v-62.55h11.24v62.55h-11.24Z"/>
    <path class="cls-3" d="M306.26,95.12v-5.83c-3.72,4.4-10.65,7.35-16.48,7.35-13.19,0-22.74-11.07-22.74-25.28s9.89-24.77,23.5-24.77c6.59,0,13.1,3.89,15.55,7.52h.17v-5.92h10.31v46.92h-10.31ZM305.92,71.53c0-8.2-5.66-14.62-13.78-14.62s-13.86,6.59-13.86,14.96c0,7.86,6,14.46,13.95,14.46s13.69-6.76,13.69-14.79Z"/>
    <path class="cls-3" d="M355.54,95.12v-23.58c0-9.55-3.13-14.62-9.47-14.62-3.47,0-9.72,2.28-9.72,12.6v25.61h-11.24v-46.92h10.4v4.06c3.72-3.64,7.52-5.66,12.93-5.66,6.09,0,18.34,3.8,18.34,20.8v27.73h-11.24Z"/>
  </g>
</svg>
