<?xml version="1.0" encoding="UTF-8"?>
<svg id="Lager_1" data-name="Lager 1" xmlns="http://www.w3.org/2000/svg" viewBox="0 0 500 500">
  <defs>
    <style>
      .cls-1 {
        fill: #d65d4e;
      }

      .cls-2 {
        fill: #d76857;
      }

      .cls-3 {
        fill: #dd8275;
      }

      .cls-4 {
        fill: #d86957;
        font-family: ITCAvantGardePro-Demi, 'ITC Avant Garde Gothic Pro';
        font-size: 84.54px;
        font-weight: 300;
      }
    </style>
  </defs>
  <text class="cls-4" transform="translate(84.08 438.73)"><tspan x="0" y="0">vanplan</tspan></text>
  <g>
    <path class="cls-2" d="M245.19,249.81c11.35-30.82,27.63-61.03,38.84-91.74,1.94-5.31,3.84-12.67,4.26-18.29.97-12.98-3.9-24.68-3.02-37.61,2.19-32.27,34.06-57.83,65.92-52.83,1.29.2,3.16,1.13,4.78.97.57.63-7.52,10.51-8.53,11.76-6.56,8.09-13.56,15.87-20.26,23.85-1.1,1.71-1.89,4.17-1.8,6.21.15,3.55,4.66,13.55,6.3,17.3,1.58,3.61,2.52,7.43,6.51,9.03,9.88.63,21.77,9.39,30.31,1.26s17.15-21.13,25.81-30.33c.7-.75,3.41-3.96,4.28-3.27,1.37,1.07,3.81,12.35,3.99,14.56,1,12.69-3.49,38.29-15.03,45.86-.13.09-1.02-.06-1.78.46-.81.55-1.02,1.87-1.85,2.21-.88.36-2.79.23-2.89.33-.21.2.48,1.51.25,2.03-.41.91-2.79,1.59-3.15,2.09-.24.33-.04.75-.11.88-.39.11-.99-.13-1.52.23-.56.39-.34,1.01-.48,1.27-5.7,1.67-10.46,5.21-15.67,7.12s-12.03,2.41-17.62,4.45c-2.1.77-2.79.68-3.8,2.47-.99.56-6.7,2.3-6.96,2.57-.23.24.08,1.36-.3,1.95-.17.26-2.67,1.32-3.51,2.01-2.91,2.38-5.62,5.71-7.79,8.77-.36.5-.41,1.49-.6,1.64-.42.34-1.73-.09-2.19.57-.31.45-.66,4.29-1.61,5.9-.63,1.07-2.06,1.73-2.12,2-.36,1.6-.32,6.25-2.36,7.07-.47.19-1.48-.02-1.62.11-.25.25-.35,5.67-.75,7.02-.49,1.65-2.57,3.4-2.74,3.87-.59,1.68-.5,3.97-1.4,6-.22.5-1.99,2.17-2.23,2.82-1.13,3.16-1.8,7.38-2.93,10.84-.45,1.38-.65,2.78-1.11,4.15-12.41,26.05-21.33,54.98-34.05,80.74-2.71,5.5-4.82,9.41-10.46,12.35-3.36,1.75-7.07,2.99-10.53,4.51-.5.02-1,0-1.5,0-2.88.04-4.81-.14-7.52-.5,1.86-1.36,9.37.4,10.42-1.15.21-.31-.02-1.13.15-1.29.31-.28,1.78.19,2.76-.53,2.36-1.75-.33-2.02-1.05-2.53-3.19-2.23.88-3.51,1.5-4.55.53-.9.19-3.6,1.58-3.97.76-.2,2.97,1.67,4.69.48-1.37,2.6-.74,3.92,1.75,5.52-.13-2.77,1.89-2.29,2.63-3.15.28-.32.21-1.16.61-1.63.49-.57,1.5-.78,1.8-1.24.69-1.08-1.46-5.66-.78-8.17.04-.14,2.19-1.78,2.34-1.81,1.11-.2,2.67,3.15,4.45-2.55.21-.68-.25-1.38.11-2.35,1.25-3.42,4.81-4.15-2.26-6.55-.33-.11-4.16-1.1-4.42-1.14-1.37-.19-2.83,1.18-4,.03-.63-.91.5-3.59,1.08-4.49,1.87-2.91,5.46-1.98,4.21-7.06-4,1.97-.85-2.93.75-2.5,1.35.36-.99,3.9,2.51,3.99.82.02,1.47-.81,2.13-.92,1.94-.31,3.53,2.63-.1,2.46-.85-.04-4.19-1.51-3.28.73.29.7,2.76.45,4.17,1.35,1.21.77,2.28,2.72,2.45,2.81,2.6,1.45,2.21-.91,2.68-1.85.74-1.5,1.73-2.27,2.37-4.16,1.24-3.64,1.32-7.7-1.92-10.39-.85-.7-5-1.92-4.73-3.28.73-.41,5.38-1.79,5.67-1.72.88.21,2.65,4.69,4.85,4.47-.52-3.37.65-2.02,1.38-2.63.6-.5,2.56-5.99,2.14-6.39-2.61.45-1.72-.53-2.5-1.66-.25-.35-1.02-.32-1.04-.63-.1-1.12,1.17-1.82,1.07-2.95-.12-1.32-2.42-1.71-.95-3.95.85-1.3,4.51-.99,3.93-4.85,2.45-.78,3.32,3.32,3.53,3.49,1.73,1.47,2.1-3.52,2.49-4.74.32-1.01,1.2-1.48,1.39-2.12.4-1.36-.05-3.2.1-4.66-.96-.25-1.58.86-2.33.92-.99.07-1.99-1.93-4.46-.45-2.72,1.63,0,3.03.14,4.34.53,4.73-4.16,1.91-4.88,2.7-.14.16.16,1.56.01,2.15-.12.49-1.1.57-1.45,1.15-.43.72-.92,3.14-1.32,3.22-2.01.43-2.04-2.59-2.25-4.01l2.5.5c1.46-3.88-1.77-3.14-3.78-4.49-1.44-.97-1.29-3.34-4.24-2.53-.69,3.13,1.42,1.33,2.56,2.7.55.66.49,1.51.45,2.3-1.42.69-3.29-1.24-4.19-.98-1.19.35-3.36,6.85-5.33,4.99-.41-.39,1.3-2.35-.37-2.91-1.27-.42-1.94.62-1.64-1.6,3.75.59,3.08-.83,4.51-2.76.68-.92,2.69-1.83,1.77-3.26-1.4-2.18-4.31-.72-4.74-1.03-.19-.14-.21-1.22-.49-1.63-1.28-1.87-7.95-1.4-9.72-1.94-1.14-.35-1.7-2.68-3.07-.37-.83,1.4-.55,2.98-.29,4.48-1.43-1.31-2.28.79-2.51,2.26-.25,1.63,2.85-.15,3.79,1.76.25.51-.11,4.35-.27,4.51-.21.22-5.44-.71-6.03-.3-.17.12-1.68,3.15-1.88,3.66-1.09,2.82-.95,5.73-2.42,8.61-1.28,2.52-3.7,6.89-5.21,8.57.76-2.24,1.59-5.17,2.48-7.29,2.49-5.91,5.1-11.92,7.54-17.77.22-.53.32-1.07.5-1.5l.5-.5ZM353.9,52.26c.78-1.75-3.92-1.63-4.95-1.95-.49,1.78,1.69.67,2.01,1,.12.13-.35,2.8.76,3.01,1.28.25.87-2.15,2.19-2.06Z"/>
    <path class="cls-2" d="M182.53,244.3c-25.8-62.53-52.93-124.62-77.93-187.49-.54-1.36-2.65-5.9-2.7-6.85-.02-.43.37-1.15.68-1.15h53.63c.3,0,.91,1.02,1.13,1.38,1.9,3.05,4.82,11.76,6.38,15.67,14.18,35.4,28.43,72.42,41.83,107.15,1.15,2.98,2.02,5.52,2.54,8.64.14.85-.14,1.68,1,2.01.02.17-.02.34,0,.5.14,1.11.33,2.03.66,3.1,2.61,8.24,7.17,16.79,9.95,24.66.77,2.18.58,5.54-.69,7.48-.91,1.38-2.06,1.01-3.16,1.86s-2.83,3.33-3.77,3.75c-1.93.86-2.73-.37-3.71,2.82-.33,1.07.48,2.07-.75,3.24-.97.92-1.97.5-2.44.82-.43.3-.33,1.61-.68,1.84-.49.31-1.84-.21-2.74.52-.79.64-.51,1.94-.95,2.56-.58.81-4.71,2.89-5.53,3.49-1.26.93-4.14,4.05-5.61,4.46-1.54.43-2.56-1.09-3.88-.95-1.1.12-1.56,1.57-2.78,1.53-.06-.14.06-.36,0-.5l-.5-.5ZM153.71,50.31h-48.62c-1.59,0,.08,4.38.41,5.11,2.53,5.64,5.32,11.17,6.98,16.57.72,2.34,3.29,5.91,3.39,6.26,1.02,3.49,1.47,5.86,2.87,9.53.23.61.95.53,1.11,1.01.5,1.51,1.17,6.2,1.98,7.35.36.51,1.33.16,1.49.33.2.22.02,2.15.28,3.01.18.61,1.87,4.78,2.04,4.99.54.62,1.64.39,1.75.51.16.15-.4,1.14-.32,1.65.58,4.01,4.02,9.86,5.6,13.88.23.58.17,1.9.26,1.98.25.24,1.8-.16,1.99.01.17.15-.02,3.38.22,4.54.47,2.3,3.04,8.01,4.03,10.51.26.67,1.64,4.29,1.82,4.44.33.27,1.42-.03,1.95.06l-.5,2.5c1.33-.27,1.64-.98,3.24-1.05,1.75-.08,4.17.34,3.56,2.57-.85,3.09-4.22-.17-4.77,1.8-.09.31,1.35,5.55,1.63,6.3.8,2.11,2.17,3.66,3.05,5.47.46.94.6,3.26,1.28,3.73,2.17,1.51.97-2.47,3.53-1.78-.09.62.14,3.47.79,3.53,1.88-1.11,8-1.36,6.97-4.03-2.07,1.45-6.14-1.2-3.76-2.78.25-.17,4.37.46,6.06.06,3.48-.82,5.41-4.8,7-5.55.67-.31,7.84-.61,8.5-1.25-1.73-4.18-.81-2.82,2.37-3.89.48-.16,2.71-2.36,2.64.12-.01.57-.72,1.1-.86,1.66-.26,1.02-.89,4.88-1.63,5.4-.55.39-1.84.09-2,.25-.07.07-.1,1.9-.03,1.97.12.13,2.57.09,3.03-.23.55-.38.49-2.05,1.26-2.27.89-.26,1.67.98,2.9.98,1.38,0,5.8-2.87,6.29-.7.36,1.61-2.02,1.71,3.05,2.22.16-3.62.51-6.46-4-5.01-.41-1.56,1.46-.95,2.21-1.47,1.38-.95-1.38-2.56-1.61-3.39-.51-1.81-.34-4.87-1.56-6.84-.46-.75-2.51-.71-2.95-2.18s.26-3.03-.37-4.64c-.41-1.05-2.73-2.68-2.77-2.88-.16-.88.63-1.85.44-2.8-.15-.78-1.43-1.72-1.77-2.76-.44-1.33-.4-4.9-1.08-5.84-.47-.66-1.75-.05-2.03-.31-.51-.47.04-5.37-.54-5.99-.76-.8-1.56,1.66-1.7,2.05-.29.82-.18,2.05-.38,2.37-.21.35-2.73.78-2.92.58-.07-.07-.04-1.9.03-1.97.17-.17,1.72.21,2.26-.51.18-.24-.5-1.75.04-2.92.49-1.05,1.52-.46,1.68-.61.14-.13-.82-3.25-1.01-3.62-.29-.57-1.21-.56-1.42-1.2-.74-2.24-.4-5.24-1.97-8.07-.84-1.51-2.54-1.83-2.97-4.04-.67-3.41-.2-4.55-1.66-8.27-3.12-7.97-6.43-17.2-9.92-25.27-.72-1.66-2.36-3.47-2.82-4.69-1.28-3.39.89-5.85-4.04-6.49ZM152.45,167.61c-.22.29,1.55,5.62,2.84,5.96s3.84-3.05,2.94-4.47c-.57-.91-4.94-2.62-5.78-1.49ZM168.99,203.19c.72-.51,0-9.02-3.5-7.02-1.12,1.83,1.25,8.6,3.5,7.02Z"/>
    <path class="cls-3" d="M209.1,184.15c1.18-.15,1.9,2.65,2.25,3.52,6.89,17.28,13.31,35.79,20.45,52.25,2.56,5.89,3.43,14.89,12.39,11.91-2.44,5.85-5.05,11.87-7.54,17.77-.89,2.12-1.73,5.05-2.48,7.29-1.32,1.47-1.74,3.27-2.51,5.01-1.71.8-6.32,1.45-7.48,2.29-.86.62-2.95,4.05-4.28,5.25-1.07.96-3.23,1.76-3.81,2.71-.66,1.08-.4,2.39-1.02,3.49-.81,1.44-4.11,4.76-5.19,6.84-1.2,2.3-1.14,4.29-.23,6.59.2.5.9.76.96.91.35.91.64,2.02,1,3.01.71,1.96,1.28,4.06,2.01,6.02-1.37.3-.92-.74-1.26-1.47-9.31-20.28-16.83-41.59-25.31-62.19l.49-.25-.49-.25c-1.22-2.96-2.76-6.48-4.01-9.52,1.22.04,1.68-1.41,2.78-1.53,1.32-.14,2.33,1.38,3.88.95s4.35-3.53,5.61-4.46c.82-.61,4.95-2.69,5.53-3.49.44-.61.16-1.92.95-2.56.9-.73,2.25-.2,2.74-.52.35-.22.25-1.54.68-1.84.46-.32,1.47.11,2.44-.82,1.24-1.18.43-2.17.75-3.24.98-3.19,1.78-1.96,3.71-2.82.94-.42,2.68-2.91,3.77-3.75s2.25-.48,3.16-1.86c1.27-1.94,1.46-5.3.69-7.48-2.78-7.86-7.33-16.42-9.95-24.66-.34-1.07-.53-1.99-.66-3.1Z"/>
    <path class="cls-3" d="M387.55,146.55c-.5,1.63-2.25,3.17-3.49,4.29-.62.56-1.42.54-1.86.88-1.99,1.57-.53,1.8-4.18,2.84-.14.27.09.88-.48,1.27-.53.36-1.13.12-1.52.23-1.41,2.58-2.2,1.6-4.38,2.86-10.39,6.03-21.21,7.33-32.71,11.17-1.44,2.54-1.6,1.42-3.62,2.56-16.98,9.66-26.75,41.01-34.21,59.13-.32.77.05,1.76-1.27,1.46,1.13-3.46,1.8-7.68,2.93-10.84.23-.65,2.01-2.32,2.23-2.82.89-2.03.81-4.33,1.4-6,.17-.47,2.25-2.23,2.74-3.87.4-1.35.5-6.77.75-7.02.13-.13,1.14.08,1.62-.11,2.04-.82,2.01-5.47,2.36-7.07.06-.27,1.49-.93,2.12-2,.95-1.61,1.3-5.46,1.61-5.9.46-.66,1.77-.23,2.19-.57.18-.15.24-1.13.6-1.64,2.17-3.06,4.88-6.39,7.79-8.77.84-.69,3.34-1.75,3.51-2.01.38-.58.07-1.7.3-1.95.25-.27,5.96-2,6.96-2.57,1.01-1.78,1.7-1.7,3.8-2.47,5.59-2.04,12.54-2.6,17.62-4.45s9.97-5.45,15.67-7.12c.14-.26-.07-.88.48-1.27s1.13-.12,1.52-.23c.07-.13-.13-.55.11-.88.36-.5,2.74-1.19,3.15-2.09.23-.52-.46-1.83-.25-2.03.11-.1,2.01.03,2.89-.33.83-.34,1.04-1.66,1.85-2.21.76-.52,1.65-.38,1.78-.46Z"/>
    <path class="cls-2" d="M211.61,312.97c3.1.13,2.18,4.8,3.12,5.9,1.27,1.49,4.04-.84,1.9,4.62,1.42.27,4.21,1.03,5.04,2.23.67.97.27,2.6.93,3.08,2.33,1.67,1.83-1.24,2.53-2.05,2.4-2.74,6.44-.47,8.07,2,1.08,1.64-.4,1.75-.88,2.45-.31.44-.1,1.24-.17,1.32-.34.37-2.61-1.79-2,1-2.12-.63-4.03-1.59-6.02-2.51-.14-.06-.36.06-.5,0-.8-1.59-2.73-2.2-4.01-3.01-.78-1.49-1.36-2.61-3.01-3.51-.07-.13.07-.37,0-.5-.6-1.13-1.48-2.74-2.51-3.51-.06-.15.05-.35,0-.5l-.5-.5c-.05-.15.05-.35,0-.5-.73-1.96-1.29-4.05-2.01-6.02Z"/>
    <path class="cls-3" d="M230.15,333.52c.15.05.35-.05.5,0,.07.23.27.45.5.5.3.06.7-.06,1,0,.05.24.27.48.5.5.65.07,1.37-.09,2.01,0,2.71.36,4.64.54,7.52.5-4.73,1.28-9.92.47-14.38-1.41l-3.67-2.6c1.99.92,3.9,1.88,6.02,2.51Z"/>
    <path class="cls-3" d="M254.21,330.51c-2.17,2.27-6.41,4.48-9.55,4.82-.73.08-.93-.31-.98-.31,3.46-1.52,7.17-2.76,10.53-4.51Z"/>
    <path class="cls-3" d="M219.63,328.01c1.28.8,3.21,1.41,4.01,3.01-1.81-.85-3.19-1.43-4.01-3.01-.49-.31-1.04-.13-1.79-.96-.71-.79-.77-1.73-1.22-2.55,1.65.9,2.23,2.02,3.01,3.51Z"/>
    <path class="cls-3" d="M208.1,181.64c2.02-.26.98,1.75,1,2.01-1.14-.32-.86-1.15-1-2.01Z"/>
    <path class="cls-3" d="M216.62,324c-.36-.31-2.29-2.01-2.37-2.15-.3-.59-.05-1.11-.14-1.36,1.03.77,1.9,2.37,2.51,3.51Z"/>
    <path class="cls-3" d="M244.69,250.31c.09-.21.32-.37.5-.5l-.5.5Z"/>
    <path class="cls-3" d="M214.11,319.99s-.38-.17-.5-.5l.5.5Z"/>
    <path class="cls-2" d="M187.04,255.33c-.06-.14.06-.36,0-.5l.49.25-.49.25Z"/>
    <path class="cls-3" d="M183.03,244.8c-.06-.14-.42-.3-.5-.5l.5.5Z"/>
    <path class="cls-1" d="M234.16,276.88c1.51-1.68,3.93-6.05,5.21-8.57,1.46-2.89,1.33-5.79,2.42-8.61.2-.51,1.71-3.54,1.88-3.66.59-.41,5.82.51,6.03.3.16-.16.52-4,.27-4.51-.94-1.91-4.04-.13-3.79-1.76.23-1.47,1.08-3.57,2.51-2.26-.26-1.5-.54-3.08.29-4.48,1.37-2.31,1.93.02,3.07.37,1.78.54,8.44.07,9.72,1.94.28.41.3,1.49.49,1.63.43.32,3.34-1.15,4.74,1.03.92,1.43-1.09,2.34-1.77,3.26-1.43,1.93-.77,3.35-4.51,2.76-.3,2.22.37,1.17,1.64,1.6,1.67.56-.04,2.52.37,2.91,1.98,1.87,4.14-4.63,5.33-4.99.9-.26,2.77,1.67,4.19.98.04-.79.1-1.64-.45-2.3-1.14-1.37-3.24.43-2.56-2.7,2.95-.82,2.8,1.56,4.24,2.53,2.01,1.35,5.24.61,3.78,4.49l-2.5-.5c.21,1.42.23,4.44,2.25,4.01.4-.09.89-2.5,1.32-3.22.35-.58,1.33-.66,1.45-1.15.15-.59-.16-1.99-.01-2.15.72-.79,5.41,2.03,4.88-2.7-.15-1.31-2.86-2.71-.14-4.34,2.47-1.48,3.47.52,4.46.45.75-.06,1.37-1.17,2.33-.92-.15,1.45.3,3.29-.1,4.66-.19.64-1.07,1.11-1.39,2.12-.39,1.22-.76,6.2-2.49,4.74-.21-.18-1.08-4.27-3.53-3.49.57,3.86-3.08,3.54-3.93,4.85-1.47,2.25.83,2.63.95,3.95.1,1.13-1.17,1.83-1.07,2.95.03.3.8.27,1.04.63.78,1.13-.12,2.11,2.5,1.66.42.4-1.54,5.89-2.14,6.39-.73.61-1.89-.74-1.38,2.63-2.2.22-3.97-4.25-4.85-4.47-.29-.07-4.94,1.31-5.67,1.72-.27,1.36,3.88,2.58,4.73,3.28,3.24,2.68,3.17,6.74,1.92,10.39-.65,1.89-1.63,2.66-2.37,4.16-.47.94-.08,3.3-2.68,1.85-.16-.09-1.24-2.04-2.45-2.81-1.41-.9-3.88-.64-4.17-1.35-.92-2.24,2.43-.77,3.28-.73,3.63.17,2.04-2.78.1-2.46-.66.11-1.3.94-2.13.92-3.51-.09-1.16-3.63-2.51-3.99-1.6-.43-4.74,4.47-.75,2.5,1.25,5.09-2.34,4.16-4.21,7.06-.58.9-1.71,3.59-1.08,4.49,1.17,1.15,2.63-.22,4-.03.26.04,4.09,1.03,4.42,1.14,7.07,2.39,3.51,3.13,2.26,6.55-.35.97.11,1.66-.11,2.35-1.78,5.71-3.34,2.36-4.45,2.55-.15.03-2.3,1.66-2.34,1.81-.68,2.51,1.46,7.08.78,8.17-.3.47-1.31.67-1.8,1.24-.4.47-.33,1.3-.61,1.63-.73.86-2.76.38-2.63,3.15-2.49-1.6-3.12-2.92-1.75-5.52-1.72,1.19-3.93-.68-4.69-.48-1.4.37-1.05,3.07-1.58,3.97-.61,1.04-4.69,2.31-1.5,4.55.72.5,3.41.78,1.05,2.53-.97.72-2.45.25-2.76.53-.17.15.07.97-.15,1.29-1.05,1.54-8.56-.22-10.42,1.15-.64-.09-1.36.07-2.01,0-.07-.23-.27-.45-.5-.5-.31-.06-.7.06-1,0-.09-.22-.27-.43-.5-.5-.15-.05-.35.05-.5,0-.61-2.79,1.66-.63,2-1,.07-.07-.14-.87.17-1.32.49-.7,1.96-.81.88-2.45-1.63-2.47-5.67-4.75-8.07-2-.7.8-.21,3.72-2.53,2.05-.66-.48-.26-2.11-.93-3.08-.83-1.2-3.62-1.96-5.04-2.23,2.14-5.46-.62-3.13-1.9-4.62-.94-1.1-.02-5.77-3.12-5.9-.36-.99-.65-2.1-1-3.01,4.71,1.68,6.35-5.85,8.51-8.28,1.02-1.15,2.86-1.65,3.98-2.53,3.61-2.86,6.55-12.69,8.56-17.26.77-1.74,1.18-3.54,2.51-5.01ZM256.72,255.33c-.87-.87-2.56.8-.74,1.5,1.06.41.89-1.35.74-1.5ZM271.75,258.33c-.09-.09-1.1.06-1.5,0,.3,2.89.93,4.09,4,3.5.4-1.79-1.6-.5-2.29-1.48-.39-.55-.11-1.92-.22-2.03ZM275.52,263.85c-1.55.34-.13,2.75.99,2.5,1.55-.34.13-2.75-.99-2.5Z"/>
    <path class="cls-1" d="M353.9,52.26c-1.32-.09-.9,2.3-2.19,2.06-1.1-.21-.63-2.88-.76-3.01-.31-.33-2.5.79-2.01-1,1.03.32,5.73.2,4.95,1.95Z"/>
    <path class="cls-1" d="M153.71,50.31c4.93.64,2.75,3.1,4.04,6.49.47,1.23,2.11,3.03,2.82,4.69,3.49,8.07,6.8,17.3,9.92,25.27,1.46,3.73.99,4.86,1.66,8.27.43,2.21,2.13,2.53,2.97,4.04,1.57,2.83,1.23,5.83,1.97,8.07.21.64,1.13.63,1.42,1.2.19.37,1.15,3.49,1.01,3.62-.16.15-1.18-.44-1.68.61-.55,1.17.14,2.68-.04,2.92-.54.73-2.09.34-2.26.51-.07.07-.09,1.9-.03,1.97.19.2,2.71-.23,2.92-.58.2-.32.09-1.55.38-2.37.14-.39.94-2.85,1.7-2.05.59.62.03,5.51.54,5.99.28.26,1.56-.34,2.03.31.68.95.64,4.51,1.08,5.84.34,1.04,1.62,1.98,1.77,2.76.18.95-.6,1.92-.44,2.8.04.2,2.36,1.83,2.77,2.88.63,1.61-.06,3.21.37,4.64s2.49,1.43,2.95,2.18c1.22,1.97,1.05,5.03,1.56,6.84.23.83,3,2.44,1.61,3.39-.75.52-2.62-.1-2.21,1.47,4.52-1.45,4.16,1.39,4,5.01-5.07-.51-2.69-.61-3.05-2.22-.49-2.17-4.91.71-6.29.7-1.24,0-2.02-1.24-2.9-.98-.77.22-.71,1.9-1.26,2.27-.46.32-2.91.35-3.03.23-.07-.07-.04-1.9.03-1.97.16-.16,1.45.14,2-.25.73-.52,1.37-4.38,1.63-5.4.14-.56.85-1.09.86-1.66.07-2.49-2.17-.28-2.64-.12-3.19,1.07-4.11-.29-2.37,3.89-.67.64-7.84.94-8.5,1.25-1.6.75-3.52,4.73-7,5.55-1.69.4-5.81-.23-6.06-.06-2.38,1.58,1.69,4.23,3.76,2.78,1.03,2.67-5.09,2.92-6.97,4.03-.66-.05-.88-2.9-.79-3.53-2.56-.7-1.36,3.29-3.53,1.78-.68-.47-.82-2.79-1.28-3.73-.88-1.81-2.25-3.37-3.05-5.47-.28-.74-1.72-5.98-1.63-6.3.55-1.98,3.92,1.29,4.77-1.8.61-2.23-1.81-2.65-3.56-2.57-1.6.08-1.91.79-3.24,1.05l.5-2.5c-.54-.08-1.62.21-1.95-.06-.19-.15-1.56-3.77-1.82-4.44-.99-2.5-3.55-8.21-4.03-10.51-.24-1.16-.05-4.39-.22-4.54-.19-.17-1.74.23-1.99-.01-.09-.08-.03-1.4-.26-1.98-1.58-4.01-5.02-9.87-5.6-13.88-.07-.51.48-1.5.32-1.65-.12-.11-1.22.12-1.75-.51-.18-.2-1.86-4.38-2.04-4.99-.26-.85-.08-2.79-.28-3.01-.16-.17-1.13.18-1.49-.33-.81-1.15-1.49-5.84-1.98-7.35-.16-.48-.88-.4-1.11-1.01-1.4-3.67-1.86-6.04-2.87-9.53-.1-.35-2.67-3.92-3.39-6.26-1.66-5.41-4.45-10.94-6.98-16.57-.32-.72-2-5.11-.41-5.11h48.62ZM181.03,137.53c-1.03.93-4.24-.18-4.49,0-1.01.73-.72,6.16-.51,7.51,3.3-.14,2.57-4.6,3.23-5.55.54-.78,2.39.24,1.78-1.97ZM188.04,145.05c-1.44-.42-2.56,2.46-2,3.01.13.12,3.39.63,3.51.5.98-1.1-2.16-2.16-1.51-3.51ZM167.99,150.06h-3v1h3v-1ZM171.5,150.56h-1.5v1h1.5v-1ZM186.54,152.57c-.55-.55-1.54.45-1,1s1.54-.45,1-1ZM165.25,153.57c-1.18.26-.74,2.27.49,2s.74-2.27-.49-2Z"/>
    <path class="cls-1" d="M152.45,167.61c.84-1.13,5.21.58,5.78,1.49.9,1.42-1.6,4.82-2.94,4.47s-3.06-5.66-2.84-5.96Z"/>
    <path class="cls-1" d="M168.99,203.19c-2.25,1.58-4.62-5.19-3.5-7.02,3.5-2,4.22,6.51,3.5,7.02Z"/>
    <path class="cls-2" d="M231.66,281.89c-2.01,4.57-4.95,14.4-8.56,17.26-1.12.89-2.96,1.39-3.98,2.53-2.16,2.43-3.8,9.95-8.51,8.28-.06-.15-.76-.41-.96-.91-.92-2.3-.97-4.29.23-6.59,1.08-2.08,4.38-5.39,5.19-6.84.62-1.1.36-2.41,1.02-3.49.58-.95,2.73-1.74,3.81-2.71,1.33-1.2,3.43-4.63,4.28-5.25,1.16-.84,5.77-1.48,7.48-2.29Z"/>
    <path class="cls-2" d="M231.15,334.02c-.23-.05-.43-.27-.5-.5.23.07.41.28.5.5Z"/>
    <path class="cls-2" d="M232.66,334.52c-.23-.03-.45-.27-.5-.5.23.05.43.27.5.5Z"/>
    <path class="cls-2" d="M271.75,258.33c.11.11-.17,1.48.22,2.03.69.97,2.69-.31,2.29,1.48-3.08.59-3.7-.61-4-3.5.4.05,1.41-.1,1.5,0Z"/>
    <path class="cls-2" d="M275.52,263.85c1.11-.25,2.53,2.16.99,2.5-1.11.25-2.53-2.16-.99-2.5Z"/>
    <path class="cls-2" d="M256.72,255.33c.15.15.32,1.9-.74,1.5-1.82-.69-.13-2.37.74-1.5Z"/>
    <path class="cls-2" d="M181.03,137.53c.61,2.21-1.24,1.18-1.78,1.97-.66.95.07,5.41-3.23,5.55-.21-1.35-.5-6.78.51-7.51.25-.18,3.47.93,4.49,0Z"/>
    <path class="cls-2" d="M188.04,145.05c-.65,1.35,2.49,2.41,1.51,3.51-.12.13-3.38-.38-3.51-.5-.56-.54.57-3.43,2-3.01Z"/>
    <path class="cls-2" d="M165.25,153.57c1.23-.27,1.67,1.74.49,2s-1.67-1.74-.49-2Z"/>
    <rect class="cls-2" x="164.99" y="150.06" width="3" height="1"/>
    <rect class="cls-2" x="170" y="150.56" width="1.5" height="1"/>
    <path class="cls-2" d="M186.54,152.57c.55.55-.45,1.54-1,1s.45-1.54,1-1Z"/>
  </g>
</svg>